<?xml version="1.0" standalone="no"?> <!DOCTYPE svg PUBLIC "-//W3C//DTD SVG 1.0//EN" "http://www.w3.org/TR/2001/REC-SVG-20010904/DTD/svg10.dtd" > <svg xmlns="http://www.w3.org/2000/svg" width="100%" height="100%">
<defs >
<font horiz-adv-x="482" ><font-face
    font-family="Accuratist"
    units-per-em="1000"
    panose-1="2 0 5 6 2 0 0 2 0 4"
    ascent="930"
    descent="-210"
    alphabetic="0" />
<missing-glyph horiz-adv-x="680" d="M320 570Q348 570 372 561T413 534T440 492T450 440Q450 402 437 383T408 350T379 325T365 290V260H285V290Q285 324 298 344T327 380T356 408T370 440Q370 463 357 476T320 490H270V570H320ZM80 750H600V-50H80V750ZM160
30H520V670H160V30ZM325 130Q306 130 293 143T280 175Q280 194 293 207T325 220Q344 220 357 207T370 175Q370 156 357 143T325 130Z" />
<glyph unicode=" " glyph-name="space" horiz-adv-x="160" />
<glyph unicode="!" glyph-name="exclam" horiz-adv-x="230" d="M170 45Q170 22 154 6T115 -10Q92 -10 76 6T60 45Q60 68 76 84T115 100Q138 100 154 84T170 45ZM70 190V700H160V190H70Z" />
<glyph unicode="&quot;" glyph-name="quotedbl" horiz-adv-x="335" d="M50 700H135V490H50V700ZM200 700H285V490H200V700Z" />
<glyph unicode="#" glyph-name="numbersign" horiz-adv-x="570" d="M490 390H560V310H455L395 180H480V100H360L315 0H225L270 100H170L125 0H35L80 100H10V180H115L175 310H90V390H210L255 490H345L300 390H400L445 490H535L490 390ZM205 180H305L365 310H265L205 180Z" />
<glyph unicode="$" glyph-name="dollar" horiz-adv-x="510" d="M40 505Q40 588 85 636T210 700V780H300V700H430V605H235Q190 605 163 578T135 505Q135 471 160 451T222 415T302 385T383 348T445 293T470 205Q470 118 423 67T300 0V-80H210V0H50V95H265Q314 95
344 125T375 205Q375 239 350 259T288 295T208 325T127 362T65 417T40 505Z" />
<glyph unicode="%" glyph-name="percent" horiz-adv-x="680" d="M470 700H570L210 0H110L470 700ZM560 170Q560 189 547 202T510 215Q487 215 474 202T460 170V125Q460 106 473 93T510 80Q533 80 546 93T560 125V170ZM650 125Q650 65 612 28T510 -10Q446 -10 408
27T370 125V170Q370 230 408 267T510 305Q574 305 612 268T650 170V125ZM220 575Q220 594 207 607T170 620Q147 620 134 607T120 575V530Q120 511 133 498T170 485Q193 485 206 498T220 530V575ZM310 530Q310 470 272 433T170 395Q106 395 68 432T30 530V575Q30
635 68 672T170 710Q234 710 272 673T310 575V530Z" />
<glyph unicode="&amp;" glyph-name="ampersand" horiz-adv-x="600" d="M590 235L510 155L590 60L520 0L445 90Q419 62 387 40Q360 21 323 6T240 -10Q195 -10 157 6T90 49T46 114T30 195Q30 238 52 277T100 348Q131 384 170 415Q150 434 135 459Q121 479 111 507T100
570Q100 596 110 621T140 666T184 698T240 710Q270 710 295 700T340 670T369 626T380 570Q380 536 366 508T335 459Q315 434 290 415L450 225L525 300L590 235ZM240 85Q274 85 300 96T346 122Q368 139 385 160L225 350Q197 329 175 304Q156 283 141 255T125 195Q125
172 134 152T158 117T195 94T240 85ZM195 570Q195 551 201 535T215 506Q224 492 235 480Q249 492 260 506Q269 518 277 534T285 570Q285 589 272 602T240 615Q221 615 208 602T195 570Z" />
<glyph unicode="&apos;" glyph-name="quotesingle" horiz-adv-x="185" d="M50 700H135V490H50V700Z" />
<glyph unicode="(" glyph-name="parenleft" horiz-adv-x="320" d="M80 510Q80 557 97 597T143 667T213 713T300 730V640Q243 640 207 604T170 510V100Q170 43 206 7T300 -30V-120Q253 -120 213 -103T144 -57T97 13T80 101V510Z" />
<glyph unicode=")" glyph-name="parenright" horiz-adv-x="320" d="M240 101Q240 54 223 14T177 -56T107 -103T20 -120V-30Q77 -30 113 6T150 100V510Q150 567 114 603T20 640V730Q67 730 107 714T176 668T223 598T240 510V101Z" />
<glyph unicode="*" glyph-name="asterisk" horiz-adv-x="400" d="M295 635L320 650L360 580L335 565L265 540L335 515L360 500L320 430L295 445L230 490L240 420V380H160V420L170 490L105 445L80 430L40 500L65 515L135 540L65 565L40 580L80 650L105 635L170
590L160 660V700H240V660L230 590L295 635Z" />
<glyph unicode="+" glyph-name="plus" horiz-adv-x="410" d="M250 480V350H370V260H250V130H160V260H40V350H160V480H250Z" />
<glyph unicode="," glyph-name="comma" horiz-adv-x="180" d="M150 90L40 -90H-20L60 90H150Z" />
<glyph unicode="-" glyph-name="hyphen" horiz-adv-x="410" d="M370 350V260H40V350H370V350Z" />
<glyph unicode="." glyph-name="period" horiz-adv-x="190" d="M150 45Q150 22 134 6T95 -10Q72 -10 56 6T40 45Q40 68 56 84T95 100Q118 100 134 84T150 45Z" />
<glyph unicode="/" glyph-name="slash" horiz-adv-x="440" d="M0 0L340 700H440L100 0H0Z" />
<glyph unicode="0" glyph-name="zero" horiz-adv-x="580" d="M510 210Q510 163 493 123T447 54T377 7T290 -10Q243 -10 203 7T134 53T87 123T70 210V490Q70 537 87 577T133 646T203 693T290 710Q337 710 377 693T446 647T493 577T510 490V210ZM415 490Q415 516
406 539T379 579T339 605T290 615Q271 615 257 610T231 600Q219 593 210 585L415 215V490ZM165 485V210Q165 184 174 161T201 121T241 95T290 85Q309 85 323 89T349 100Q361 106 370 115L165 485Z" />
<glyph unicode="1" glyph-name="one" horiz-adv-x="395" d="M375 0H30V95H155V605H30V700H250V95H375V0Z" />
<glyph unicode="2" glyph-name="two" horiz-adv-x="500" d="M440 0H40V280L250 370Q303 393 329 421T355 495Q355 517 346 537T322 572T287 596T245 605H60V700H245Q288 700 325 684T390 641T434 576T450 495Q450 416 409 368T300 290L135 220V95H440V0Z" />
<glyph unicode="3" glyph-name="three" horiz-adv-x="485" d="M20 0V95H230Q252 95 272 103T307 127T331 162T340 205Q340 227 331 247T307 282T272 306T230 315H110V400L310 555V605H30V700H405V525L240 400Q281 400 316 385T378 344T420 282T435 205Q435 162
419 125T376 60T311 16T230 0H20Z" />
<glyph unicode="4" glyph-name="four" horiz-adv-x="540" d="M330 0V175H0L150 510H250L145 270H330V700H425V270H510V175H425V0H330Z" />
<glyph unicode="5" glyph-name="five" horiz-adv-x="525" d="M70 0V95H280Q302 95 322 103T357 127T381 162T390 205Q390 227 381 247T357 282T322 306T280 315H80V700H425V605H175V410H280Q323 410 360 394T425 351T469 286T485 205Q485 162 469 125T426 60T361
16T280 0H70Z" />
<glyph unicode="6" glyph-name="six" horiz-adv-x="510" d="M260 430Q305 430 345 413T415 365T462 295T480 210Q480 165 463 125T415 55T345 8T260 -10Q215 -10 175 7T105 55T58 125T40 210Q40 234 46 257T60 299Q69 320 80 340L260 700H365L225 425Q230 426
235 427Q240 428 246 429T260 430ZM260 335Q234 335 211 326T171 299T145 259T135 210Q135 184 144 161T171 121T211 95T260 85Q286 85 309 94T349 121T375 161T385 210Q385 236 376 259T349 299T309 325T260 335Z" />
<glyph unicode="7" glyph-name="seven" horiz-adv-x="455" d="M455 700L125 0H20L305 605H20V700H455Z" />
<glyph unicode="8" glyph-name="eight" horiz-adv-x="520" d="M260 425Q302 425 328 451T355 520Q355 562 329 588T260 615Q218 615 192 589T165 520Q165 478 191 452T260 425ZM260 85Q286 85 309 94T349 121T375 161T385 210Q385 236 376 259T349 299T309 325T260
335Q234 335 211 326T171 299T145 259T135 210Q135 184 144 161T171 121T211 95T260 85ZM260 710Q299 710 334 695T394 655T435 594T450 520Q450 480 438 454T412 411Q395 392 375 380Q404 363 427 338Q447 317 463 285T480 210Q480 165 463 125T415 55T345 8T260
-10Q215 -10 175 7T105 55T58 125T40 210Q40 253 56 285T92 338Q115 363 145 380Q124 392 107 411Q93 428 82 454T70 520Q70 559 85 594T125 654T186 695T260 710Z" />
<glyph unicode="9" glyph-name="nine" horiz-adv-x="510" d="M250 270Q205 270 165 287T95 335T48 405T30 490Q30 535 47 575T95 645T165 692T250 710Q295 710 335 693T405 645T452 575T470 490Q470 465 464 442T450 401Q441 380 430 360L250 0H145L285 275Q280
273 275 272Q270 271 264 271T250 270ZM250 365Q276 365 299 374T339 401T365 441T375 490Q375 516 366 539T339 579T299 605T250 615Q224 615 201 606T161 579T135 539T125 490Q125 464 134 441T161 401T201 375T250 365Z" />
<glyph unicode=":" glyph-name="colon" horiz-adv-x="190" d="M150 45Q150 22 134 6T95 -10Q72 -10 56 6T40 45Q40 68 56 84T95 100Q118 100 134 84T150 45ZM150 445Q150 422 134 406T95 390Q72 390 56 406T40 445Q40 468 56 484T95 500Q118 500 134 484T150 445Z" />
<glyph unicode=";" glyph-name="semicolon" horiz-adv-x="190" d="M160 445Q160 422 144 406T105 390Q82 390 66 406T50 445Q50 468 66 484T105 500Q128 500 144 484T160 445ZM150 90L40 -90H-20L60 90H150Z" />
<glyph unicode="&lt;" glyph-name="less" horiz-adv-x="400" d="M30 270L370 470V375L130 240L370 105V10L30 210V270Z" />
<glyph unicode="=" glyph-name="equal" horiz-adv-x="410" d="M370 250V160H40V250H370ZM370 450V360H40V450H370Z" />
<glyph unicode="&gt;" glyph-name="greater" horiz-adv-x="400" d="M370 210L30 10V105L270 240L30 375V470L370 270V210Z" />
<glyph unicode="?" glyph-name="question" horiz-adv-x="395" d="M335 515Q335 479 324 452T296 404T260 366T224 331T196 295T185 250V190H95V250Q95 287 105 315T132 364T167 403T202 437T229 472T240 515Q240 553 213 579T140 605H40V700H140Q181 700 216 685T278
645T320 586T335 515ZM195 45Q195 22 179 6T140 -10Q117 -10 101 6T85 45Q85 68 101 84T140 100Q163 100 179 84T195 45Z" />
<glyph unicode="@" glyph-name="at" horiz-adv-x="770" d="M400 630Q471 630 531 605T636 536T705 432T730 300Q730 255 718 220T684 160T633 123T570 110Q547 110 530 116T502 130Q489 139 480 150Q467 139 452 130Q438 122 421 116T380 110Q348 110 321 121T273
154T242 204T230 270Q230 306 243 337T279 391T333 427T400 440H520V220Q523 211 530 205Q535 199 545 195T570 190Q600 190 625 218T650 300Q650 352 631 398T578 477T498 530T400 550Q344 550 293 528T204 467T143 377T120 270Q120 214 142 163T203 74T293 13T400
-10Q419 -10 435 -8T464 -3Q478 1 490 5L510 -70Q495 -76 477 -80Q462 -84 443 -87T400 -90Q325 -90 260 -62T145 15T68 129T40 270Q40 345 68 410T145 525T259 602T400 630ZM380 190Q395 190 406 194T425 205Q434 211 440 220V350H400Q381 350 365 343T336 325T317
300T310 270Q310 232 330 211T380 190Z" />
<glyph unicode="A" glyph-name="A" horiz-adv-x="540" d="M0 0L220 700H320L540 0H440L385 170H155L100 0H0ZM180 260H360L270 545L180 260Z" />
<glyph unicode="B" glyph-name="B" horiz-adv-x="580" d="M148 0H20V95H100V605H20V700H315Q356 700 391 685T453 644T495 582T510 505Q510 469 498 444T470 402Q452 383 430 370Q458 355 480 331Q499 311 514 280T530 205Q530 162 514 125T471 60T406 16T325
0H148ZM195 405H315Q360 405 387 432T415 505Q415 550 388 577T315 605H195V405ZM195 95H325Q374 95 404 125T435 205Q435 254 405 284T325 315H195V95Z" />
<glyph unicode="C" glyph-name="C" horiz-adv-x="525" d="M70 480Q70 529 87 571T136 644T209 692T300 710Q357 710 395 690T459 645Q487 616 505 580L425 530Q415 554 398 572Q384 588 360 601T300 615Q272 615 248 605T205 576T176 533T165 480V220Q165 192
175 168T204 125T247 96T300 85Q335 85 359 98T398 127Q415 145 425 170L505 120Q487 83 459 55Q434 30 396 10T300 -10Q251 -10 209 7T136 56T88 129T70 220V480Z" />
<glyph unicode="D" glyph-name="D" horiz-adv-x="575" d="M100 605H20V700H285Q332 700 372 683T441 637T488 567T505 480V220Q505 173 488 133T442 64T372 17T285 0H20V95H100V605ZM195 95H285Q311 95 334 104T374 131T400 171T410 220V480Q410 506 401 529T374
569T334 595T285 605H195V95Z" />
<glyph unicode="E" glyph-name="E" horiz-adv-x="530" d="M510 0H90V700H510V605H185V400H420V305H185V95H510V0Z" />
<glyph unicode="F" glyph-name="F" horiz-adv-x="510" d="M510 605H80V700H510V605ZM175 0H80V410H420V315H175V0Z" />
<glyph unicode="G" glyph-name="G" horiz-adv-x="610" d="M300 85Q328 85 352 95T395 124T424 167T435 220V260H355V355H610V260H530V220Q530 171 513 129T464 56T391 8T300 -10Q251 -10 209 7T136 56T88 129T70 220V480Q70 529 87 571T136 644T209 692T300 710Q357
710 395 690T459 645Q487 616 505 580L425 530Q415 554 398 572Q384 588 360 601T300 615Q272 615 248 605T205 576T176 533T165 480V220Q165 192 175 168T204 125T247 96T300 85Z" />
<glyph unicode="H" glyph-name="H" horiz-adv-x="620" d="M90 0V605H10V700H185V400H435V700H530V0H435V305H185V0H90V0Z" />
<glyph unicode="I" glyph-name="I" horiz-adv-x="365" d="M10 95H135V605H10V700H355V605H230V95H355V0H10V95V95Z" />
<glyph unicode="J" glyph-name="J" horiz-adv-x="390" d="M265 220Q265 173 248 133T202 64T132 17T45 0H0V95H45Q71 95 94 104T134 131T160 171T170 220V605H45V700H390V605H265V220V220Z" />
<glyph unicode="K" glyph-name="K" horiz-adv-x="545" d="M90 605H10V700H185V400H280L430 700H535L360 350L535 0H430L280 305H185V0H90V605Z" />
<glyph unicode="L" glyph-name="L" horiz-adv-x="520" d="M500 0H90V700H185V95H405V180H500V0Z" />
<glyph unicode="M" glyph-name="M" horiz-adv-x="720" d="M710 95V0H535V545L410 300H310L185 545V0H90V700H205L360 400L515 700H630V95H710Z" />
<glyph unicode="N" glyph-name="N" horiz-adv-x="620" d="M530 700V0H435L185 490V0H90V605H10V700H185L435 210V700H530Z" />
<glyph unicode="O" glyph-name="O" horiz-adv-x="600" d="M70 480Q70 529 87 571T136 644T209 692T300 710Q349 710 391 693T464 644T512 571T530 480V220Q530 171 513 129T464 56T391 8T300 -10Q251 -10 209 7T136 56T88 129T70 220V480ZM435 480Q435 508 425
532T396 575T353 604T300 615Q272 615 248 605T205 576T176 533T165 480V220Q165 192 175 168T204 125T247 96T300 85Q328 85 352 95T395 124T424 167T435 220V480Z" />
<glyph unicode="P" glyph-name="P" horiz-adv-x="560" d="M425 500Q425 545 395 575T320 605H10V700H320Q361 700 397 684T461 641T504 578T520 500Q520 459 504 423T461 359T398 316T320 300H185V0H90V395H320Q365 395 395 425T425 500Z" />
<glyph unicode="Q" glyph-name="Q" horiz-adv-x="600" d="M590 -30L515 -80L440 40Q425 26 404 15Q386 5 360 -2T300 -10Q251 -10 209 7T136 56T88 129T70 220V480Q70 529 87 571T136 644T209 692T300 710Q349 710 391 693T464 644T512 571T530 481V220Q530 194
527 172T520 134Q516 116 510 100L590 -30ZM300 85Q323 85 339 90T367 102Q380 110 390 120L165 480V220Q165 192 175 168T204 125T247 96T300 85ZM435 481Q435 509 425 533T396 576T353 604T300 615Q277 615 260 610T232 597Q219 589 210 580L435 220V481Z" />
<glyph unicode="R" glyph-name="R" horiz-adv-x="585" d="M435 500Q435 545 405 575T330 605H10V700H330Q371 700 407 684T471 641T514 578T530 500Q530 445 508 409T460 351Q429 325 390 310L545 0H440L295 300H185V0H90V395H330Q375 395 405 425T435 500Z" />
<glyph unicode="S" glyph-name="S" horiz-adv-x="510" d="M40 505Q40 546 55 581T96 643T158 685T235 700H430V605H235Q190 605 163 578T135 505Q135 471 160 451T222 415T302 385T383 348T445 293T470 205Q470 162 454 125T411 60T346 16T265 0H50V95H265Q314
95 344 125T375 205Q375 239 350 259T288 295T208 325T127 362T65 417T40 505Z" />
<glyph unicode="T" glyph-name="T" horiz-adv-x="505" d="M300 0H205V315H30V410H475V315H300V0ZM30 700H475V605H30V700Z" />
<glyph unicode="U" glyph-name="U" horiz-adv-x="630" d="M185 220Q185 192 195 168T224 125T267 96T320 85Q348 85 372 95T415 124T444 167T455 220V700H550V220Q550 171 533 129T484 56T411 8T320 -10Q271 -10 229 7T156 56T108 129T90 220V605H10V700H185V220Z" />
<glyph unicode="V" glyph-name="V" horiz-adv-x="560" d="M340 0H240L60 605H-20V700H130L290 160L450 700H550L340 0Z" />
<glyph unicode="W" glyph-name="W" horiz-adv-x="720" d="M10 605V700H185V155L310 400H410L535 155V700H630V0H515L360 300L205 0H90V605H10Z" />
<glyph unicode="X" glyph-name="X" horiz-adv-x="510" d="M385 700H490L320 350L500 0H395L255 280L115 0H10L190 350L20 700H125L255 425L385 700Z" />
<glyph unicode="Y" glyph-name="Y" horiz-adv-x="475" d="M190 290L-10 700H95L235 410H240L380 700H485L285 290V0H190V290Z" />
<glyph unicode="Z" glyph-name="Z" horiz-adv-x="450" d="M440 95V0H-10L295 605H10V700H450L145 95H440Z" />
<glyph unicode="[" glyph-name="bracketleft" horiz-adv-x="320" d="M80 730H300V640H170V-30H300V-120H80V730Z" />
<glyph unicode="\" glyph-name="backslash" horiz-adv-x="440" d="M340 0L0 700H100L440 0H340Z" />
<glyph unicode="]" glyph-name="bracketright" horiz-adv-x="320" d="M240 -120H20V-30H150V640H20V730H240V-120Z" />
<glyph unicode="^" glyph-name="asciicircum" horiz-adv-x="440" d="M20 370L180 700H260L420 370H320L220 580L120 370H20Z" />
<glyph unicode="_" glyph-name="underscore" horiz-adv-x="330" d="M330 -90V-180H0V-90H330V-90Z" />
<glyph unicode="`" glyph-name="grave" horiz-adv-x="210" d="M100 700L180 540H120L10 700H100Z" />
<glyph unicode="a" glyph-name="a" horiz-adv-x="460" d="M180 0Q112 0 71 41T30 150Q30 218 71 259T180 300H300V330Q300 360 280 380T230 400H100V490H230Q302 490 346 446T390 330V0H180ZM180 210Q154 210 137 193T120 150Q120 124 137 107T180 90H300V210H180Z" />
<glyph unicode="b" glyph-name="b" horiz-adv-x="480" d="M340 320Q340 354 317 377T260 400H170V90H260Q294 90 317 113T340 170V320ZM170 490H260Q297 490 328 478T382 443T417 389T430 320V170Q430 132 418 101T383 48T329 13T260 0H80V610H10V700H170V490Z" />
<glyph unicode="c" glyph-name="c" horiz-adv-x="420" d="M50 315Q50 356 63 390T101 448T160 486T235 500Q286 500 318 484T368 447Q389 424 400 395L325 350Q318 367 306 380Q295 391 278 400T235 410Q193 410 167 384T140 315V175Q140 133 166 107T235 80Q261
80 278 89T306 110Q318 123 325 140L400 95Q389 65 368 42Q350 22 318 6T235 -10Q194 -10 160 3T102 41T64 100T50 175V315Z" />
<glyph unicode="d" glyph-name="d" horiz-adv-x="470" d="M310 490V610H240V700H400V0H220Q182 0 151 12T98 47T63 101T50 170V320Q50 357 62 388T97 442T151 477T220 490H310ZM140 170Q140 136 163 113T220 90H310V400H220Q186 400 163 377T140 320V170Z" />
<glyph unicode="e" glyph-name="e" horiz-adv-x="450" d="M50 320Q50 359 63 392T101 449T158 486T230 500Q269 500 302 487T359 449T396 392T410 320V195H140V170Q140 136 163 113T220 90H380V0H220Q182 0 151 12T98 47T63 101T50 170V320ZM230 410Q192 410 166
384T140 320V280H320V320Q320 358 294 384T230 410Z" />
<glyph unicode="f" glyph-name="f" horiz-adv-x="310" d="M100 90V400H10V490H100V530Q100 567 112 598T147 652T201 687T270 700H320V610H270Q236 610 213 587T190 530V490H290V400H190V90H280V0H10V90H100Z" />
<glyph unicode="g" glyph-name="g" horiz-adv-x="415" d="M20 -55Q20 -27 30 -5T52 31Q66 48 85 60Q74 69 65 81Q57 92 51 106T45 140Q45 159 51 173T65 199Q74 211 85 220Q69 232 57 249Q46 263 38 284T30 335Q30 369 41 397T74 446T124 478T190 490H425V400H356Q361
392 365 381Q369 372 372 360T375 335Q375 301 364 273T331 224T281 192T215 180H165Q125 180 125 140Q125 100 165 100H235Q271 100 300 89T351 57T383 8T395 -55Q395 -89 384 -117T351 -166T301 -198T235 -210H180Q144 -210 115 -199T64 -167T32 -118T20 -55ZM215
270Q245 270 265 289T285 335Q285 361 265 380T215 400H190Q160 400 140 381T120 335Q120 309 140 290T190 270H215ZM180 10Q150 10 130 -9T110 -55Q110 -81 130 -100T180 -120H235Q265 -120 285 -101T305 -55Q305 -29 285 -10T235 10H180Z" />
<glyph unicode="h" glyph-name="h" horiz-adv-x="510" d="M170 440Q182 457 200 470Q215 481 237 490T290 500Q320 500 347 488T395 453T428 399T440 330V0H350V330Q350 364 327 387T270 410Q247 410 229 402T197 385Q181 374 170 360V0H80V610H10V700H170V440Z" />
<glyph unicode="i" glyph-name="i" horiz-adv-x="280" d="M190 600H100V700H190V600ZM100 90V400H30V490H190V90H280V0H10V90H100Z" />
<glyph unicode="j" glyph-name="j" horiz-adv-x="250" d="M180 600H90V700H180V600ZM90 400H20V490H180V-40Q180 -78 168 -109T133 -162T79 -197T10 -210H-40V-120H10Q44 -120 67 -97T90 -40V400Z" />
<glyph unicode="k" glyph-name="k" horiz-adv-x="460" d="M170 290H255L355 490H450L325 245L450 0H355L255 200H170V0H80V610H10V700H170V290Z" />
<glyph unicode="l" glyph-name="l" horiz-adv-x="240" d="M170 0H80V610H10V700H170V0Z" />
<glyph unicode="m" glyph-name="m" horiz-adv-x="760" d="M170 440Q170 441 177 450T199 471T235 491T285 500Q317 500 340 488T379 460Q397 442 410 420Q426 442 446 460Q463 475 488 487T545 500Q573 500 599 488T645 453T678 399T690 330V0H600V330Q600 364
578 387T525 410Q504 410 487 402T457 385Q442 374 430 360V0H340V330Q340 364 318 387T265 410Q244 410 227 402T197 385Q182 374 170 360V0H80V400H10V490H170V440Z" />
<glyph unicode="n" glyph-name="n" horiz-adv-x="510" d="M170 440Q182 457 200 470Q215 481 237 490T290 500Q320 500 347 488T395 453T428 399T440 330V0H350V330Q350 364 327 387T270 410Q247 410 229 402T197 385Q181 374 170 360V0H80V400H10V490H170V440Z" />
<glyph unicode="o" glyph-name="o" horiz-adv-x="470" d="M420 175Q420 134 407 100T369 42T310 4T235 -10Q194 -10 160 3T102 41T64 100T50 175V315Q50 356 63 390T101 448T160 486T235 500Q276 500 310 487T368 449T406 390T420 315V175ZM140 175Q140 133 166
107T235 80Q277 80 303 106T330 175V315Q330 357 304 383T235 410Q193 410 167 384T140 315V175Z" />
<glyph unicode="p" glyph-name="p" horiz-adv-x="480" d="M260 490Q297 490 328 478T382 443T417 389T430 320V170Q430 132 418 101T383 48T329 13T260 0H170V-210H80V400H10V490H260ZM340 320Q340 354 317 377T260 400H170V90H260Q294 90 317 113T340 170V320Z" />
<glyph unicode="q" glyph-name="q" horiz-adv-x="480" d="M470 490V400H400V-210H310V0H220Q182 0 151 12T98 47T63 101T50 170V320Q50 357 62 388T97 442T151 477T220 490H470ZM140 170Q140 136 163 113T220 90H310V400H220Q186 400 163 377T140 320V170Z" />
<glyph unicode="r" glyph-name="r" horiz-adv-x="350" d="M0 0V90H90V400H20V490H180V440Q192 457 210 470Q225 481 247 490T300 500H340V400H280Q257 400 239 392T207 375Q191 364 180 350V90H270V0H0Z" />
<glyph unicode="s" glyph-name="s" horiz-adv-x="400" d="M220 90Q246 90 263 107T280 150Q280 169 262 180T215 199T155 217T95 242T49 282T30 345Q30 377 40 403T70 449T116 479T175 490H340V400H175Q152 400 136 384T120 345Q120 326 138 315T185 296T245 278T305
253T351 213T370 150Q370 82 329 41T220 0H40V90H220V90Z" />
<glyph unicode="t" glyph-name="t" horiz-adv-x="330" d="M90 400H0V490H90V650H180V490H280V400H180V170Q180 136 203 113T260 90H310V0H260Q222 0 191 12T138 47T103 101T90 170V400Z" />
<glyph unicode="u" glyph-name="u" horiz-adv-x="510" d="M350 490H440V0H250Q212 0 181 12T128 47T93 101T80 170V400H10V490H170V170Q170 136 193 113T250 90H350V490Z" />
<glyph unicode="v" glyph-name="v" horiz-adv-x="445" d="M235 140L340 490H435L285 0H185L65 400H0V490H130L235 140Z" />
<glyph unicode="w" glyph-name="w" horiz-adv-x="610" d="M450 145V490H540V0H440L310 235L180 0H80V400H10V490H170V145L270 325H350L450 145Z" />
<glyph unicode="x" glyph-name="x" horiz-adv-x="420" d="M300 490H400L270 245L410 0H310L210 180L110 0H10L150 245L20 490H120L210 310L300 490Z" />
<glyph unicode="y" glyph-name="y" horiz-adv-x="445" d="M330 490H425L260 -60Q237 -135 198 -172T90 -210H60V-120H90Q124 -120 143 -103T170 -60L190 5L55 400H-10V490H120L231 145L330 490Z" />
<glyph unicode="z" glyph-name="z" horiz-adv-x="350" d="M350 490L140 90H340V0H-10L200 400H0V490H350Z" />
<glyph unicode="{" glyph-name="braceleft" horiz-adv-x="310" d="M20 350H50Q73 350 86 363T100 400V600Q100 657 136 693T230 730H290V640H230Q190 640 190 600V400Q190 374 181 356T160 326Q147 313 130 305Q147 297 160 284Q171 273 180 255T190 210V10Q190
-30 230 -30H290V-120H230Q173 -120 137 -84T100 10V210Q100 233 87 246T50 260H20V350Z" />
<glyph unicode="|" glyph-name="bar" horiz-adv-x="270" d="M90 -80V780H180V-80H90V-80Z" />
<glyph unicode="}" glyph-name="braceright" horiz-adv-x="310" d="M290 260H260Q237 260 224 247T210 210V10Q210 -47 174 -83T80 -120H20V-30H80Q120 -30 120 10V210Q120 236 129 254T150 284Q163 297 180 305Q163 313 150 326Q139 337 130 355T120 400V600Q120
640 80 640H20V730H80Q137 730 173 694T210 600V400Q210 377 223 364T260 350H290V260Z" />
<glyph unicode="~" glyph-name="asciitilde" horiz-adv-x="460" d="M310 210Q280 210 259 222T220 250T189 277T160 290Q145 290 133 278T120 250V220H40V250Q40 310 72 345T150 380Q180 380 201 368T240 340T271 313T300 300Q315 300 327 312T340 340V370H420V340Q420
280 388 245T310 210Z" />
</font>
</defs>
</svg>
